<svg width="944" height="678" viewBox="0 0 944 678" fill="none" xmlns="http://www.w3.org/2000/svg">
<path fill-rule="evenodd" clip-rule="evenodd" d="M675.631 50.7254C721.508 66.8059 756.023 95.9048 779.557 137.919C795.704 166.746 805.007 197.837 809.641 230.481C810.402 235.843 810.925 241.214 811.448 246.585L811.449 246.597C811.715 249.324 811.98 252.052 812.277 254.778C812.78 259.394 813.602 259.98 817.958 257.772C833.144 250.077 847.656 241.241 861.511 231.358C868.328 226.497 874.972 221.39 881.612 216.286L881.895 216.068C892.638 207.811 905.085 207.916 915.03 217.002C930.665 231.286 939.222 249.34 942.349 270.132C943.345 276.752 943.345 283.373 943.062 290.055C942.431 305 934.187 314.965 923.201 324.155C886.856 354.56 847.637 380.448 805.141 401.363C801.435 403.186 799.836 405.485 799.183 409.607C791.725 456.717 782.18 503.308 763.374 547.475C757.497 561.276 751.016 574.787 743.462 587.761C741.272 591.523 738.859 595.281 735.533 597.993C731.335 601.416 729.515 605.974 727.645 610.657C727.547 610.904 727.448 611.151 727.349 611.398C722.56 623.344 716.977 634.882 708.796 644.942C706.095 648.263 703.206 651.528 697.327 652.716C697.657 647.013 699.338 641.856 700.999 636.764L700.999 636.763L700.999 636.762C702.265 632.881 703.518 629.038 704.15 625.02C703.559 626.145 702.968 627.269 702.376 628.394C701.059 630.898 699.742 633.402 698.428 635.907C695.174 642.108 691.878 648.292 687.337 653.677L687.165 653.881C685.491 655.872 683.479 658.264 680.718 657.104C678.002 655.962 678.532 653.319 678.998 650.992C679.033 650.816 679.068 650.642 679.101 650.47C679.134 650.3 679.165 650.132 679.193 649.967C680.208 643.994 681.882 638.187 683.558 632.374L683.558 632.372L683.559 632.37L683.559 632.367C684.92 627.646 686.283 622.919 687.294 618.095C686.363 619.995 685.457 621.906 684.551 623.818L684.549 623.821C681.928 629.352 679.308 634.88 676.093 640.096C674.785 642.218 673.372 644.303 671.772 646.208C671.706 646.287 671.639 646.367 671.571 646.448C670.252 648.03 668.653 649.946 666.414 648.963C664.128 647.96 664.638 645.662 665.07 643.712L665.079 643.668C665.095 643.597 665.111 643.527 665.126 643.457C665.139 643.398 665.152 643.339 665.164 643.28C665.173 643.24 665.181 643.201 665.189 643.162C666.156 638.541 667.288 633.955 668.42 629.371L668.42 629.37L668.42 629.369L668.422 629.364L668.495 629.067C669.017 626.951 669.551 624.838 670.085 622.725C672.405 613.539 674.725 604.355 676.108 594.953C676.442 592.682 676.205 590.746 675.236 588.704C670.223 578.129 668.263 566.847 667.969 555.261C667.579 539.886 668.5 524.559 669.421 509.231C669.858 501.953 670.296 494.674 670.592 487.39C671.027 476.739 671.435 466.086 671.675 455.429C671.805 449.639 670.802 448.959 665.215 450.174C650.893 453.289 636.457 455.762 621.923 457.614C618.378 458.066 617.302 459.726 617.078 463.153C616.223 476.289 616.214 489.436 616.204 502.582C616.199 509.929 616.194 517.275 616.041 524.619C616.024 525.431 616.009 526.244 615.995 527.056C615.983 527.754 615.971 528.452 615.96 529.15C615.791 539.454 615.621 549.765 613.363 559.911C613.265 560.348 613.189 560.803 613.113 561.259C612.905 562.498 612.695 563.751 612.056 564.704C606.488 573.014 607.396 581.89 608.303 590.748C608.59 593.548 608.876 596.347 608.958 599.126C609.088 603.577 609.451 608.02 609.813 612.464C610.046 615.32 610.279 618.176 610.451 621.035C610.456 621.117 610.462 621.202 610.468 621.287C610.472 621.332 610.475 621.377 610.479 621.422C610.485 621.488 610.49 621.554 610.496 621.621C610.62 623.078 610.763 624.757 608.997 625.407C606.983 626.149 605.76 624.64 604.655 623.275L604.546 623.141L604.479 623.057C601.14 618.962 599.491 614.063 597.97 609.11C597.922 608.954 597.878 608.797 597.836 608.638C597.795 608.486 597.756 608.333 597.717 608.179C597.39 606.903 597.054 605.587 595.734 604.525C594.15 606.448 594.459 608.56 594.777 610.627C595.491 615.271 595.439 619.938 595.387 624.604V624.604C595.372 625.934 595.357 627.263 595.36 628.592C595.364 630.411 595.356 632.577 593.121 633.103C591.024 633.596 589.92 631.849 588.966 630.339L588.894 630.224C587.184 627.521 585.872 624.625 584.549 621.704C583.594 619.597 582.634 617.477 581.514 615.407C581.576 616.278 581.646 617.149 581.716 618.019C581.888 620.165 582.06 622.31 582.126 624.459C582.167 625.769 581.914 627.271 580.42 627.781C578.962 628.278 577.825 627.313 576.931 626.328C573.875 622.964 571.666 619.047 569.844 614.914C564.979 603.877 561.843 592.331 559.831 580.463C559.809 580.338 559.789 580.213 559.768 580.088C559.457 578.232 559.146 576.371 557.954 574.837C548.968 563.262 545.789 549.597 542.576 535.787L542.575 535.782L542.574 535.776C542.266 534.456 541.959 533.134 541.646 531.812C537.596 514.715 540.835 498.506 544.939 482.153C545.83 478.605 546.505 474.999 547.177 471.4C547.247 471.026 547.34 470.638 547.434 470.246C547.966 468.02 548.529 465.662 545.143 464.881C541.579 464.059 540.988 466.675 540.412 469.226C540.388 469.334 540.363 469.443 540.338 469.551L540.304 469.701C536.21 487.383 531.826 504.984 526.407 522.322C519.536 544.3 511.063 565.642 501.409 586.531C499.094 591.539 496.663 596.605 492.787 600.506C487.91 605.413 487.089 611.524 486.272 617.607L486.272 617.608L486.272 617.608L486.272 617.609C486.037 619.36 485.802 621.108 485.471 622.825C482.571 637.862 481.526 653.135 480.481 668.393L480.409 669.452C480.4 669.575 480.393 669.699 480.387 669.823C480.382 669.94 480.377 670.058 480.372 670.176C480.347 670.77 480.322 671.365 480.203 671.94C480.175 672.078 480.148 672.218 480.12 672.359C479.862 673.698 479.587 675.117 477.975 675.498C476.221 675.914 475.185 674.632 474.343 673.38C471.686 669.43 470.434 664.964 469.62 660.326C469.353 658.804 468.986 657.299 468.547 655.504C468.327 654.6 468.088 653.621 467.834 652.53C466.487 657.255 466.476 661.329 466.465 665.316C466.465 665.54 466.464 665.763 466.463 665.987C466.463 666.103 466.462 666.219 466.462 666.335C466.461 666.48 466.46 666.624 466.459 666.769C466.457 667 466.457 667.231 466.457 667.462L466.458 667.708L466.46 668.059C466.465 669.13 466.47 670.202 466.392 671.267C466.371 671.554 466.356 671.851 466.342 672.151C466.238 674.252 466.125 676.542 463.732 677.164C461.196 677.823 459.633 675.56 458.353 673.707L458.245 673.551C454.598 668.279 452.396 662.333 450.909 656.15C450.333 653.755 449.794 651.351 449.254 648.946C448.384 645.07 447.514 641.191 446.489 637.34C446.036 641.673 446.12 646.024 446.205 650.425C446.313 656.04 446.422 661.737 445.422 667.581C440.191 665.755 438.333 662.001 436.578 658.455L436.488 658.275C431.338 647.879 428.686 636.689 426.886 625.306C425.69 617.742 424.724 610.131 424.821 602.441C424.845 600.53 424.282 598.843 423.227 597.283C416.944 587.994 414.681 577.423 414.035 566.521C413.394 555.714 413.41 544.874 414.606 534.069C415.137 533.537 415.637 529.507 415.637 529.507V527.007V526.007V522.507C415.637 522.507 415.718 521.978 415.8 520.944C417.236 502.668 418.287 484.385 418.154 466.042C418.128 462.51 417.318 460.586 413.167 460.423C386.488 459.375 360.119 455.61 333.875 450.877C327.063 449.649 326.871 449.627 326.135 456.612C325.326 464.289 324.579 471.972 323.833 479.656L323.832 479.66L323.832 479.665L323.831 479.669L323.831 479.673C322.647 491.855 321.463 504.036 320.032 516.188C319.834 517.868 319.661 519.552 319.487 521.236C318.644 529.407 317.801 537.587 314.188 545.389C312.079 549.944 312.685 555.26 313.27 560.385C313.397 561.496 313.522 562.598 313.619 563.681C314.566 574.277 315.786 584.868 317.918 595.325C318.467 598.018 318.987 600.859 316.666 603.834C312.273 600.761 309.901 596.427 307.538 592.108C306.01 589.316 304.486 586.531 302.422 584.098C302.928 586.331 303.44 588.563 303.952 590.795C305.282 596.594 306.611 602.393 307.836 608.215C307.911 608.569 308.003 608.943 308.098 609.329L308.098 609.331C308.666 611.641 309.331 614.343 306.884 615.427C304.642 616.42 303.204 614.487 301.873 612.697C301.503 612.199 301.141 611.712 300.772 611.303C300.426 610.919 300.099 610.521 299.773 610.127C298.228 608.254 296.742 606.453 293.704 606.504C292.307 606.528 291.265 605.224 290.324 604.046C290.172 603.855 290.022 603.668 289.874 603.49C277.56 588.702 268.234 572.333 263.477 553.545L263.412 553.287C262.951 551.455 262.494 549.641 261.02 548.187C249.339 536.657 245.37 521.682 243.029 506.232C239.655 483.966 238.614 461.504 238.727 438.99C238.728 438.74 238.719 438.489 238.709 438.239V438.238C238.692 437.821 238.676 437.404 238.711 436.991C239.316 429.828 236.486 425.842 229.37 422.992C201.466 411.817 174.959 397.791 149.993 381.013C143.607 376.722 136.703 376.034 129.521 376.008C103.318 375.916 77.3264 378.744 51.348 381.77C47.5359 382.214 43.6714 382.285 39.8256 382.356H39.8244L39.4069 382.364C28.2882 382.571 16.2109 373.674 12.8235 363.07C11.6149 359.287 13.7091 357.395 16.4483 355.84C23.5137 351.829 31.152 349.244 38.7927 346.657L38.7952 346.656L38.7972 346.656L38.7993 346.655C40.4622 346.092 42.1252 345.529 43.7825 344.952C45.8244 344.24 47.8913 343.592 49.9654 342.941C55.0284 341.354 60.1344 339.752 65.0246 337.179C64.1201 335.128 62.5451 334.086 61.0343 333.086C60.6458 332.829 60.2615 332.575 59.894 332.307C44.6515 321.195 30.2636 309.151 17.1609 295.503C0.6687 278.324 -4.15286 258.869 3.63686 236.25C9.45427 219.358 16.539 203.203 30.9867 191.787C42.6816 182.546 55.4924 179.914 69.284 192.333C79.61 201.63 90.7128 209.99 101.81 218.346C103.76 219.814 105.709 221.282 107.654 222.754C107.898 222.939 108.135 223.14 108.375 223.343L108.376 223.343L108.376 223.343L108.376 223.343C109.404 224.211 110.487 225.127 112.394 225.063C113.155 222.59 113.031 220.002 112.907 217.428V217.427V217.427V217.427C112.867 216.591 112.827 215.755 112.817 214.926C112.585 194.932 116.147 175.793 125.746 158.076C134.809 141.347 147.079 127.155 160.955 114.251C176.762 99.551 194.474 87.3978 212.338 75.4329C213.86 74.4136 215.339 73.3289 216.816 72.244C226.011 65.4889 226.106 64.7872 220.266 55.0447C217.284 50.0711 212.751 46.8476 208.19 43.6035L207.984 43.4575L207.605 43.1877C207.212 42.9077 206.79 42.6591 206.363 42.4075C205.063 41.6424 203.717 40.8497 203 39.0624C204.464 35.9386 207.449 35.6646 210.286 35.4041C210.652 35.3706 211.014 35.3373 211.371 35.2981C217.776 34.5956 223.97 36.0204 230.13 37.4376C231.102 37.6613 232.074 37.8848 233.045 38.0996C241.167 39.8967 248.589 43.58 256.437 47.4749C257.285 47.8955 258.137 48.3186 258.996 48.7421C260.338 43.9567 258.954 39.8384 257.628 35.8969L257.628 35.8956C257.417 35.269 257.208 34.6468 257.011 34.0271C253.772 23.8128 249.195 14.247 241.571 6.42643C240.533 5.36114 239.476 4.06401 240.152 2.43077C240.968 0.459991 242.848 0.0451883 244.721 0.00742331C252.739 -0.154181 260.185 2.34366 267.376 5.45988C286.278 13.6516 302.104 25.6973 313.467 43.1631C313.576 43.3304 313.68 43.5063 313.785 43.6852C314.342 44.6347 314.95 45.6706 316.727 45.9853C316.973 44.8087 317.22 43.6323 317.468 42.4557C318.265 38.6596 319.062 34.8632 319.848 31.0645C319.912 30.7537 319.939 30.435 319.967 30.1164V30.116V30.1157C319.996 29.7679 320.026 29.4203 320.104 29.0834C320.607 26.9075 321.561 24.4701 323.718 24.1541C326.142 23.7991 327.268 26.0513 328.249 28.0144C328.325 28.1667 328.401 28.3172 328.476 28.4646C329.45 30.3828 330.347 32.3448 331.191 34.3249C337.95 50.1915 350.091 60.6541 365.2 68.0729C370.987 70.9143 376.803 73.6964 382.62 76.4785C387.322 78.7279 392.024 80.9772 396.711 83.2579C399.646 84.6859 402.533 84.1264 405.451 83.5608L405.457 83.5597L405.728 83.5073L405.99 83.4569C426.673 79.5017 446.472 72.5431 466.257 65.5733C492.315 56.3934 518.385 47.2776 545.428 41.6675C545.58 40.796 545.125 40.629 544.684 40.4673C544.357 40.3471 544.037 40.2299 543.981 39.8287C543.996 39.8146 544.014 39.7949 544.033 39.7715C544.05 39.7502 544.069 39.7257 544.089 39.6996C544.204 39.5509 544.362 39.3482 544.513 39.3522C553.453 39.5896 562.347 38.8511 571.244 38.1125C581.095 37.2946 590.949 36.4765 600.87 36.9827C626.285 38.2793 651.191 42.0797 675.631 50.7254ZM198.327 245.433C184.11 243.771 171.832 248.186 160.662 256.861C156.901 259.783 156.49 262.279 158.352 266.516C167.762 287.934 184.408 301.697 205.311 310.548C241.812 326.005 279.722 329.502 318.351 320.879C351.814 313.409 375.74 293.198 391.036 262.662C393.524 257.695 393.046 257.048 387.717 255.351C382.456 253.675 377.07 253.606 371.682 253.536H371.682H371.681H371.681C369.587 253.509 367.492 253.482 365.404 253.361C364.726 253.321 364.046 253.284 363.366 253.247C353.504 252.709 343.445 252.16 336.029 244.451C329.931 238.111 323.263 232.876 315.557 228.729C311.586 226.593 309.316 223.04 308.483 218.394C306.198 205.656 314.067 186.921 324.919 179.716C325.272 179.481 325.66 179.279 326.052 179.074C327.242 178.453 328.469 177.812 328.891 176.187C328.722 176.12 328.563 176.046 328.41 175.974C328.095 175.828 327.805 175.693 327.502 175.648C326.993 175.571 326.432 175.561 325.867 175.552C323.874 175.517 321.833 175.482 321.878 172.504C321.929 169.149 324.947 168.391 327.647 168.122C337.157 167.173 346.569 167.415 355.789 170.462C372.308 175.922 382.857 188.066 391.752 202.144C392.314 203.033 392.836 203.952 393.363 204.878L393.363 204.878C394.682 207.198 396.029 209.566 398.093 211.645C398.22 211.329 398.344 211.07 398.449 210.849C398.638 210.452 398.771 210.174 398.769 209.897C398.76 208.737 398.671 207.569 398.511 206.419C396.152 189.515 388.166 175.944 374.103 166.223C360.112 156.55 346.646 146.24 333.809 135.073C328.027 130.043 321.685 125.708 314.712 122.38C302.65 116.624 290.69 114.664 278.669 122.622C273.903 125.778 269.159 125.927 263.694 123.09C249.608 115.774 236.004 117.447 223.419 127.046C220.644 129.162 217.852 131.372 215.537 133.958C204.937 145.803 192.892 156.06 180.842 166.322L180.84 166.323L180.839 166.324C179.32 167.617 177.801 168.91 176.285 170.207C163.436 181.197 155.361 195.112 151.807 211.591C151.68 212.178 151.521 212.772 151.36 213.374C150.77 215.57 150.152 217.872 150.995 220.361C152.994 219.433 153.765 217.837 154.508 216.299C154.691 215.919 154.873 215.543 155.071 215.181C159.719 206.696 164.541 198.309 170.615 190.752C179.107 180.186 189.039 171.459 202.387 167.539C210.76 165.079 219.179 165.408 227.522 167.806C229.274 168.31 231.171 169.014 231.445 171.174C231.656 172.839 230.543 173.264 229.431 173.69C228.975 173.864 228.519 174.039 228.153 174.299C227.896 174.482 227.689 174.736 227.484 174.989C227.39 175.105 227.296 175.22 227.198 175.328C227.659 176.805 228.779 177.535 229.874 178.247C230.303 178.527 230.728 178.804 231.108 179.123C244.255 190.14 250.034 217.157 227.497 228.14C223.097 230.284 219.372 233.335 216.209 237.07C211.768 242.312 206.146 245.152 198.327 245.433ZM61.0189 351.812C57.4354 353.143 53.7776 354.276 50.0973 355.415C43.4494 357.474 36.7282 359.555 30.2393 362.868C33.6977 368.584 38.3351 371.303 44.3056 371.887C47.2033 372.171 49.7503 371.751 51.8789 369.179C65.9889 352.129 84.9598 347.27 106.038 348.085C109.262 348.21 112.595 348.898 114.9 353.303C110.213 354.331 105.373 354.794 100.556 355.255C88.3111 356.427 76.2111 357.585 67.1328 367.973C68.1891 369.161 69.1433 369.059 70.0082 368.967L70.0093 368.967L70.0106 368.967C70.111 368.956 70.2102 368.946 70.3083 368.937C71.7011 368.819 73.094 368.7 74.4868 368.581H74.4871H74.4874H74.4878C92.8247 367.015 111.156 365.449 129.542 364.387C144.085 363.546 157.397 365.501 169.067 374.782C170.099 375.603 171.235 376.293 172.371 376.982L172.371 376.983L172.372 376.983L172.372 376.983L172.372 376.983L172.373 376.984L172.373 376.984C173.236 377.507 174.099 378.031 174.918 378.614C177.453 380.416 180.212 380.986 183.314 381.242C196.547 382.334 209.632 380.906 222.705 379.479L222.705 379.479C225.835 379.137 228.963 378.796 232.093 378.489C254.74 376.269 275.844 380.171 295.234 392.474C303.723 397.861 311.667 403.979 319.609 410.096L319.61 410.097C324.728 414.039 329.845 417.98 335.107 421.725C336.194 422.498 337.276 423.285 338.359 424.072L338.361 424.073C346.414 429.925 354.521 435.817 365.06 436.742C366.728 436.889 368.392 437.118 370.081 437.35L370.083 437.351C374.384 437.942 378.845 438.556 383.938 437.887C380.126 435.494 376.321 433.227 372.565 430.991L372.563 430.99C362.359 424.912 352.519 419.052 343.91 411.447C332.254 401.15 319.144 392.931 305.248 384.81C309.343 381.193 312.63 381.871 315.827 382.669C323.806 384.659 330.307 389.385 336.77 394.082L336.773 394.084L336.775 394.086C337.445 394.573 338.114 395.059 338.785 395.543C352.18 405.194 365.686 414.627 380.856 421.366C390.037 425.445 399.603 428.302 409.508 429.906C416.345 431.013 417.166 430.171 416.781 423.386C416.725 422.395 416.599 421.404 416.473 420.413L416.473 420.412C416.283 418.914 416.093 417.417 416.145 415.927C416.287 411.869 414.778 409.782 410.55 409.364C407.092 409.022 403.665 408.145 400.283 407.276C381.383 402.421 364.043 393.794 347.371 384.032C325.43 371.184 302.122 365.419 276.743 366.202C266.871 366.507 257.131 367.845 247.397 369.182L247.396 369.182C238.665 370.381 229.938 371.58 221.123 372.032C207.939 372.709 195.637 369.845 184.186 363.404C180.582 361.377 177.733 358.571 177.74 352.986C186.314 356.584 194.112 359.456 202.489 359.964C210.595 360.455 218.72 360.929 226.683 358.728C226.1 357.792 225.544 357.436 224.936 357.233C195.392 347.372 170.282 330.585 148.667 308.363C146.839 306.485 144.616 305.528 142.227 304.73C138.154 303.369 134.089 301.986 130.024 300.603L130.019 300.601C122.104 297.908 114.19 295.214 106.221 292.69C65.3997 279.759 42.6939 243.548 43.6802 206.431C43.688 206.139 43.71 205.838 43.7324 205.534C43.84 204.069 43.9547 202.506 42.5221 201.258C39.1465 202.211 36.9425 204.692 34.7899 207.116C34.65 207.273 34.5104 207.43 34.3706 207.587C28.0715 214.643 24.0076 223.02 20.4099 231.677C19.0231 235.014 19.0973 238.049 20.7304 241.256C26.4679 252.523 33.7938 262.521 43.6487 270.559C45.1953 271.82 46.7369 273.098 48.1723 274.481C48.9135 275.195 49.3236 276.3 48.5117 277.157C48.0157 277.681 46.9949 278.151 46.3512 278.008C44.4159 277.578 42.4391 277.058 40.6758 276.178C32.2306 271.964 24.8857 266.307 18.8084 259.044C18.5419 258.725 18.2953 258.381 18.047 258.035C17.1514 256.786 16.2332 255.505 14.2752 255.272C12.6917 257.567 13.4678 259.58 14.7404 261.684C21.2117 272.384 30.0602 280.518 41.2784 285.96C49.7281 290.058 58.7438 292.585 67.7484 295.108C68.85 295.417 69.9515 295.726 71.0518 296.037C75.7385 297.364 80.4615 298.569 85.1845 299.774L85.1854 299.774C96.5966 302.684 108.008 305.595 118.905 310.229C124.941 312.796 130.568 316.013 134.722 321.265C134.895 321.484 135.089 321.702 135.286 321.922C136.262 323.018 137.303 324.185 136.207 325.981C134.023 326.171 132.282 325.182 130.591 324.221L130.591 324.22C130.277 324.042 129.966 323.865 129.653 323.697C119.119 318.018 107.768 314.806 96.1223 312.544C93.0736 311.952 90.0155 311.402 86.9576 310.852L86.9566 310.852L86.9555 310.852L86.9544 310.851C75.5979 308.809 64.2441 306.766 53.3834 302.574C53.2061 302.506 53.0204 302.398 52.8259 302.286C52.0756 301.852 51.1943 301.342 50.1545 302.7C60.5357 312.111 71.2178 321.078 82.6099 329.191C83.9267 330.129 85.4126 330.171 86.9161 330.213L86.9185 330.213L86.9209 330.213C87.0821 330.218 87.2435 330.222 87.405 330.228C95.898 330.526 104.361 331.12 112.655 333.132C123.657 335.8 134.004 339.762 141.825 348.454C142.04 348.692 142.265 348.928 142.492 349.165C143.842 350.579 145.249 352.051 144.746 354.435C142.837 355.537 141.296 354.695 139.806 353.881C139.431 353.676 139.059 353.472 138.684 353.302C137.082 352.573 135.518 351.756 133.954 350.94L133.953 350.939L133.953 350.939L133.952 350.939L133.952 350.939L133.952 350.939C130.499 349.136 127.047 347.333 123.178 346.475C102.183 341.821 81.8269 344.889 61.0189 351.812ZM869.722 285.429C875.244 281.63 880.102 277.082 884.629 272.168C888.241 268.248 891.428 263.966 894.617 259.681L894.617 259.68L894.618 259.679C900.267 252.09 905.922 244.493 913.951 238.882C910.347 233.063 906.026 229.13 900.193 226.973C894.57 224.894 891.539 226.232 889.062 231.733C888.47 233.047 887.901 234.373 887.332 235.7L887.331 235.702L887.331 235.703L887.33 235.704C885.994 238.82 884.657 241.936 883.027 244.889C868.942 270.408 849.045 286.599 818.11 284.457C813.235 284.119 812.526 286.94 812.503 290.605C812.434 301.164 811.529 311.67 810.623 322.175C810.513 323.445 810.404 324.715 810.296 325.986C810.168 327.487 809.963 328.985 809.757 330.486L809.757 330.487C809.273 334.019 808.786 337.57 809.3 341.233C811.378 341.371 812.498 340.302 813.579 339.27C813.642 339.211 813.704 339.151 813.766 339.092C813.815 339.045 813.864 338.999 813.914 338.953C813.972 338.899 814.03 338.845 814.089 338.792C814.143 338.742 814.198 338.693 814.253 338.645C814.468 338.459 814.682 338.272 814.896 338.085C815.271 337.757 815.647 337.428 816.023 337.1C822.961 331.034 829.904 324.964 837.809 320.148C848.478 313.649 859.821 309.02 872.53 308.836C872.889 308.831 873.259 308.815 873.633 308.799C876.11 308.691 878.805 308.575 880.376 311.511C880.207 311.687 880.065 311.862 879.933 312.023C879.677 312.337 879.466 312.597 879.194 312.703C878.122 313.123 877.004 313.453 875.879 313.709C860.231 317.272 845.913 323.577 833.319 333.716C826.846 338.929 821.282 344.993 815.711 351.065L815.71 351.066C813.972 352.961 812.234 354.856 810.466 356.726C805.565 361.914 805.043 367.923 804.508 374.082C804.293 376.563 804.075 379.069 803.568 381.554C809.387 380.592 810.584 379.794 812.803 375.426C820.613 360.055 832.049 347.972 846.235 338.354C858.763 329.86 872.879 324.94 886.99 320.021L888.226 319.59C888.646 319.444 889.067 319.297 889.487 319.15C904.148 314.025 917.67 307.198 927.922 294.999C930.88 291.479 931.353 288.204 929.058 284.171C926.407 285.731 923.935 287.612 921.458 289.497L921.457 289.497C915.269 294.205 909.043 298.941 899.895 298.786C901.094 295.841 902.759 294.92 904.293 294.072C904.479 293.969 904.663 293.867 904.844 293.763C912.911 289.122 919.525 282.892 925.22 275.581C927.207 273.03 928.145 270.547 926.946 267.312C926.142 265.144 925.437 262.938 924.732 260.733C923.915 258.18 923.099 255.626 922.13 253.132C919.984 247.607 918.62 247.412 913.925 251.325C910.05 254.553 906.887 258.389 904.065 262.548C903.146 263.903 902.244 265.274 901.342 266.645C898.85 270.431 896.356 274.221 893.485 277.696C878.936 295.315 858.833 302.288 837.296 306.312C836.467 306.467 835.648 306.15 834.979 303.966C838.156 302.343 841.405 300.802 844.681 299.247L844.682 299.246L844.683 299.246L844.687 299.244C853.087 295.258 861.672 291.184 869.722 285.429ZM594.418 385.983C602.787 382.801 611.377 380.91 620.324 382.591C623.537 383.195 627.821 384.395 627.52 388.243C627.27 391.443 623.751 391.417 621.03 391.397C620.691 391.395 620.364 391.393 620.057 391.397C605.85 391.581 592.957 396.037 580.56 402.592C579.501 403.152 578.444 403.716 577.387 404.28C569.923 408.265 562.44 412.26 554.291 414.716C550.768 415.778 549.17 417.672 548.817 421.343C548.561 424.014 548.081 426.661 547.601 429.31L547.6 429.312C547.248 431.252 546.896 433.193 546.632 435.145C546.596 435.412 546.547 435.684 546.498 435.961C546.206 437.599 545.886 439.39 547.955 441.095C553.802 437.563 559.393 433.442 564.78 429.053C578.417 417.943 592.874 408.384 609.652 402.432C625.919 396.66 642.644 396.717 659.483 396.906C660.346 396.916 661.14 396.929 661.868 396.94C666.363 397.012 668.379 397.045 669.136 396.084C669.751 395.304 669.534 393.868 669.141 391.264L669.14 391.263L669.14 391.262C668.931 389.878 668.672 388.165 668.462 386.046C667.891 380.285 666.922 379.993 661.298 381.94C660.5 382.216 659.705 382.509 658.91 382.801L658.905 382.803C655.169 384.176 651.425 385.553 647.331 385.29L647.216 385.282C645.471 385.171 643.351 385.036 642.645 383.056C642.017 381.293 643.251 380.212 644.42 379.189C644.656 378.982 644.889 378.777 645.104 378.57C645.937 377.766 646.876 377.028 647.876 376.451C648.795 375.921 649.712 375.386 650.629 374.851L650.631 374.85C654.029 372.868 657.428 370.884 660.946 369.142C664.133 367.564 664.175 365.444 663.214 362.564C662.143 359.358 660.146 359.847 657.677 360.625C657.203 360.775 656.728 360.925 656.254 361.076C655.721 361.245 655.188 361.414 654.655 361.584L654.654 361.584C649.47 363.235 644.28 364.888 638.997 366.133C622.455 370.034 605.87 373.905 588.644 371.588C588.339 371.547 588.026 371.519 587.712 371.49C586.076 371.344 584.404 371.194 583.66 369.2C586.783 365.438 593.37 362.923 601.665 362.065C617.656 360.412 633.217 357.031 647.871 350.164C648.245 349.989 648.629 349.826 649.014 349.663C650.721 348.941 652.457 348.207 653.454 346.306C649.908 342.103 645.337 340.825 640.429 340.494C634.182 340.073 628.299 341.782 622.414 343.493C621.577 343.736 620.74 343.979 619.901 344.217C600.809 349.619 581.559 354.236 561.579 354.559C557.886 354.619 556.701 356.245 556.35 359.628C555.447 368.337 554.429 377.034 553.412 385.732C553.096 388.434 552.78 391.136 552.467 393.838C551.771 399.854 552.553 400.559 558.598 399.225C566.417 397.498 573.734 394.413 581.237 391.248L581.238 391.248C585.528 389.439 589.878 387.604 594.418 385.983ZM305.63 425.723L305.63 425.723C309.043 426.593 312.52 427.48 316.396 426.727C316.243 426.364 316.127 426.046 316.026 425.766C315.842 425.258 315.702 424.873 315.462 424.569C302.324 407.924 285.629 396.749 264.932 391.71C246.202 387.149 227.596 389.729 208.988 392.309C208.122 392.429 207.255 392.55 206.389 392.669C205.57 392.782 204.773 393.047 204.286 394.601C205.203 395.037 206.107 395.52 207.013 396.003L207.014 396.004C210.808 398.029 214.616 400.062 219.403 398.703C232.947 394.859 246.616 394.105 260.374 397.125C267.674 398.727 275.055 400.356 281.194 405.064C281.295 405.141 281.398 405.219 281.503 405.297L281.505 405.298C282.591 406.111 283.822 407.031 283.204 408.685C282.605 410.286 281.027 410.724 279.494 410.717C278.013 410.711 276.512 410.487 275.057 410.18C273.155 409.778 271.26 409.343 269.365 408.908C266.392 408.226 263.42 407.543 260.424 406.991C253.143 405.649 245.817 404.712 238.308 406.766C258.428 414.648 279.315 419.652 301.061 424.713C302.591 424.947 304.104 425.333 305.629 425.722L305.63 425.722L305.63 425.723ZM122.106 277.821C120.725 277.191 119.324 276.596 117.923 276.001L117.922 276.001C114.874 274.707 111.826 273.414 108.994 271.751C92.3126 261.96 78.3164 249.685 77.63 228.658C77.3312 219.506 73.121 213.88 66.6483 208.82C65.7246 208.098 64.8265 207.343 63.9286 206.587L63.9284 206.587L63.9282 206.587L63.928 206.587C62.789 205.629 61.6503 204.671 60.4598 203.781C60.3127 203.672 60.1648 203.55 60.0144 203.427C59.1731 202.738 58.2543 201.986 56.9785 202.794C52.8541 240.939 97.7482 292.225 130.197 286.28C129.762 281.692 127.065 279.212 122.106 277.821ZM652.631 416.292C656.948 416.537 661.265 416.782 665.582 417.028C668.415 417.19 670.905 417.231 670.935 413.145C670.963 409.202 668.893 408.337 665.591 408.4C663.934 408.433 662.262 408.269 660.612 408.068C630.333 404.365 602.632 410.329 578.582 429.947C575.224 432.687 571.903 435.471 568.531 438.299L568.528 438.301L568.514 438.313L568.42 438.392C566.884 439.68 565.337 440.977 563.771 442.282C564.176 442.577 564.46 442.795 564.674 442.959C565.012 443.22 565.173 443.343 565.354 443.414C565.406 443.435 565.459 443.456 565.513 443.478C565.93 443.645 566.378 443.824 566.791 443.785C568.127 443.657 569.474 443.582 570.818 443.506L570.819 443.506L570.82 443.506L570.821 443.506C576.849 443.166 582.84 442.829 587.749 437.843C589.853 435.707 592.516 434.109 595.168 432.517C596.122 431.944 597.075 431.373 598 430.777C614.355 420.242 632.527 416.403 652.631 416.292ZM390.173 385.712C395.909 387.974 401.71 390.081 407.832 390.976C412.479 391.656 414.284 389.097 412.666 384.706C411.933 382.718 410.403 382.568 408.836 382.413C408.616 382.392 408.396 382.37 408.177 382.343C405.617 382.029 403.037 381.857 400.458 381.684C395.227 381.335 389.998 380.985 384.932 379.457L384.698 379.386L384.437 379.308C380.716 378.193 376.846 377.034 375.65 372.534C377.019 370.969 378.585 371.046 380.069 371.12C380.389 371.136 380.706 371.151 381.015 371.15C385.326 371.135 389.636 371.163 393.947 371.19C397.296 371.212 400.646 371.234 403.995 371.235C409.822 371.238 411.137 369.254 408.97 363.885C407.629 360.56 405.193 358.458 401.75 357.563C398.34 356.677 394.854 356.459 391.341 356.561C383.253 356.797 375.263 357.924 367.274 359.05C364.388 359.457 361.501 359.864 358.61 360.229C357.333 360.391 356.051 360.533 354.767 360.675L354.761 360.675L354.756 360.676C349.528 361.254 344.263 361.837 339.097 363.749C350.193 367.719 360.852 372.566 371.678 377.49C377.755 380.254 383.884 383.042 390.173 385.712ZM894.338 328.668L896.339 326.842C868.882 330.711 847.069 342.143 832.842 365.925C854.085 355.127 874.229 342.512 894.338 328.668ZM854.99 266.688C863.355 260.069 870.626 252.54 874.959 242.392C857.934 253.987 840.607 264.967 822.263 274.737C824.175 276.954 825.768 276.993 827.232 277.029C827.307 277.03 827.382 277.032 827.456 277.034C827.515 277.036 827.574 277.038 827.632 277.04C827.695 277.042 827.757 277.045 827.819 277.048C838.115 277.585 846.357 272.596 854.99 266.688ZM628.942 436.534C630.582 436.266 632.224 436.007 633.868 435.749C644.087 434.141 654.381 432.521 664.653 428.494C648.524 420.748 612.702 427.271 603.717 439.585C609.085 439.556 614.171 438.737 619.393 437.896L619.394 437.896C622.499 437.396 625.652 436.888 628.942 436.534ZM116.46 252.592L88.3537 229.331C85.5378 242.107 106.201 265.316 120.678 266.335C120.426 261.826 118.704 257.817 116.762 253.295C116.662 253.062 116.561 252.828 116.46 252.592ZM213.514 222.336C222.657 216.879 226.996 210.144 224.298 204.451C219.26 211.222 214.033 217.337 205.302 218.91C198.756 220.09 193.691 217.046 188.507 213.93C186.7 212.844 184.878 211.749 182.974 210.821C183.234 222.203 199.226 228.053 213.514 222.336ZM322.305 211.868C327.198 223.292 338.149 228.819 350.411 226.052C358.274 224.277 363.932 219.356 363.634 213.946C362.11 214.651 360.621 215.431 359.138 216.209C353.711 219.055 348.366 221.857 341.681 220.718C335.146 219.604 331.226 215.216 327.349 210.876C326.067 209.441 324.79 208.012 323.425 206.708C321.4 208.259 321.624 209.705 322.305 211.868ZM261.266 231.696C260.07 231.113 258.869 230.575 257.681 230.043C253.542 228.19 249.557 226.406 246.462 222.992C242.665 218.804 241.387 214.147 242.941 208.694C246.641 195.703 259.285 186.804 271.962 188.3C282.952 189.596 294.3 202.728 294.87 214.81C295.156 220.889 290.511 226.815 283.248 229.451C280.905 230.302 278.484 230.974 276.057 231.549C271.179 232.706 267.93 239.286 270.065 243.742C270.788 245.251 272.093 245.349 273.421 245.353C284.555 245.392 294.562 242.761 301.682 233.335C302.383 232.407 303.143 231.512 303.963 230.688C304.945 229.701 306.101 229.017 307.539 229.743C308.888 230.424 309.393 231.699 309.308 233.08C309.096 236.555 307.432 239.38 305.177 241.959C297.191 251.096 286.324 253.53 275.058 254.475C262.406 255.535 250.115 253.677 238.678 247.768C234.171 245.44 230.238 242.393 227.736 237.838C226.483 235.556 225.484 232.993 227.806 230.971C229.99 229.07 231.61 230.672 233.042 232.09C233.274 232.319 233.501 232.544 233.725 232.748C239.878 238.363 246.811 242.364 255.014 244.225C259.016 245.133 261.208 244.09 261.249 239.852C261.257 238.997 261.381 238.147 261.506 237.288C261.766 235.497 262.032 233.67 261.266 231.696ZM553.75 215.85V263H541.45V215.85H524.968V205.764H570.232V215.85H553.75ZM584.878 263V205.764H621.45V215.85H597.178V228.97H620.63V239.056H597.178V252.914H621.45V263H584.878ZM659.548 263.984C651.895 263.984 646.209 261.415 642.492 256.276C638.829 251.083 636.998 243.785 636.998 234.382C636.998 224.979 638.829 217.709 642.492 212.57C646.209 207.377 651.895 204.78 659.548 204.78C662.5 204.78 665.097 205.19 667.338 206.01C669.634 206.775 671.602 207.869 673.242 209.29C674.882 210.711 676.221 212.433 677.26 214.456C678.353 216.479 679.201 218.747 679.802 221.262L668.322 224.05C667.994 222.683 667.611 221.426 667.174 220.278C666.737 219.13 666.163 218.146 665.452 217.326C664.796 216.506 663.949 215.877 662.91 215.44C661.926 214.948 660.723 214.702 659.302 214.702C655.967 214.702 653.589 216.014 652.168 218.638C650.801 221.207 650.118 224.788 650.118 229.38V239.384C650.118 243.976 650.801 247.584 652.168 250.208C653.589 252.777 655.967 254.062 659.302 254.062C662.145 254.062 664.195 253.187 665.452 251.438C666.764 249.689 667.721 247.447 668.322 244.714L679.802 247.502C679.201 250.017 678.353 252.285 677.26 254.308C676.221 256.331 674.882 258.08 673.242 259.556C671.602 260.977 669.634 262.071 667.338 262.836C665.097 263.601 662.5 263.984 659.548 263.984ZM720.77 239.056H706.338V263H693.956V205.764H706.338V228.97H720.77V205.764H733.152V263H720.77V239.056ZM471.6 197.3C475.933 199.233 481.033 200.2 486.9 200.2C491.3 200.2 495.133 199.633 498.4 198.5C501.733 197.367 504.533 195.8 506.8 193.8C509.067 191.733 510.767 189.333 511.9 186.6C513.033 183.8 513.6 180.767 513.6 177.5C513.6 171.967 512.067 167.567 509 164.3C505.933 161.033 501.567 158.9 495.9 157.9L488.6 156.6C485.2 156 482.733 155.1 481.2 153.9C479.733 152.7 479 150.9 479 148.5C479 142.967 482.367 140.2 489.1 140.2C492.3 140.2 495.167 140.8 497.7 142C500.233 143.133 502.433 144.733 504.3 146.8L512.8 137.3C510.333 134.433 507.1 132.167 503.1 130.5C499.1 128.833 494.4 128 489 128C481.067 128 474.9 129.867 470.5 133.6C466.1 137.267 463.9 142.467 463.9 149.2C463.9 154.333 465.3 158.7 468.1 162.3C470.9 165.833 475.433 168.133 481.7 169.2L489 170.4C492.4 170.933 494.8 171.833 496.2 173.1C497.667 174.367 498.4 176.233 498.4 178.7C498.4 181.7 497.467 184 495.6 185.6C493.733 187.2 491 188 487.4 188C484.267 188 481.167 187.333 478.1 186C475.1 184.667 472.333 182.6 469.8 179.8L461.1 189.4C463.767 192.733 467.267 195.367 471.6 197.3ZM525.461 187.9V199H570.461V187.9H555.461V140.3H570.461V129.2H525.461V140.3H540.461V187.9H525.461ZM606.822 129.2H584.322V199H606.822C616.222 199 623.189 196 627.722 190C632.255 184 634.522 175.367 634.522 164.1C634.522 152.833 632.255 144.2 627.722 138.2C623.189 132.2 616.222 129.2 606.822 129.2ZM615.622 182.9C613.555 185.767 610.289 187.2 605.822 187.2H599.122V141H605.822C610.289 141 613.555 142.433 615.622 145.3C617.689 148.167 618.722 152.3 618.722 157.7V170.4C618.722 175.867 617.689 180.033 615.622 182.9Z" fill="black"/>
</svg>
