<svg width="24" height="24" viewBox="0 0 24 24" fill="none" xmlns="http://www.w3.org/2000/svg">
<mask id="mask0_383_99" style="mask-type:alpha" maskUnits="userSpaceOnUse" x="0" y="0" width="24" height="24">
<rect width="24" height="24" fill="#D9D9D9"/>
</mask>
<g mask="url(#mask0_383_99)">
<path d="M5.489 21.4267C4.81733 21.4267 4.13433 21.268 3.44 20.9505C2.74567 20.633 2.13283 20.1293 1.6015 19.4395C2.2165 19.3062 2.68542 19.0689 3.00825 18.7277C3.33125 18.3866 3.50842 17.88 3.53975 17.208C3.57442 16.41 3.87642 15.7309 4.44575 15.1707C5.01525 14.6107 5.72417 14.3307 6.5725 14.3307C7.42083 14.3307 8.14067 14.6265 8.732 15.218C9.3235 15.8093 9.61925 16.5292 9.61925 17.3775C9.61925 18.5402 9.21875 19.5057 8.41775 20.274C7.61675 21.0425 6.6405 21.4267 5.489 21.4267ZM11.5688 15.2272L8.7895 12.3645L18.5765 2.568C18.7932 2.35766 19.0417 2.24675 19.3223 2.23525C19.6029 2.22375 19.8599 2.33466 20.0933 2.568L21.3985 3.8735C21.6318 4.10683 21.7442 4.36516 21.7355 4.6485C21.7268 4.93183 21.6145 5.18458 21.3985 5.40675L11.5688 15.2272Z" fill="#6A9730"/>
</g>
</svg>
